# xmcd CD database file
#
# Track frame offsets:
#	182
#	23212
#	62167
#	91847
#	114505
#	135357
#	157070
#	177825
#	199170
#	229765
#
# Disc length: 3471 seconds
#
# Revision: 3
# Processed by: cddbd v1.5.2PL0 Copyright (c) Steve Scherf et al.
# Submitted via: CDex 1.70beta2
#
DISCID=7e0d8d0a
DTITLE=Stephane Grappelli et Oscar Peterson  - IV 06 - Stephane Grappelli et Oscar Peterson (Avec Kenny Clarke et Niels H Pedersen)
DYEAR=1900
DGENRE=Jazz
TTITLE0=My Heart Stood Still
TTITLE1=Blues For Musidisc
TTITLE2=Autumn Leaves
TTITLE3=Walking My Baby Back Home
TTITLE4=Thou Swell
TTITLE5=Them There Eyes
TTITLE6=Makin' Whoopee
TTITLE7=Looking at You
TTITLE8=I Won't Dance
TTITLE9=If I Had You
EXTD=
EXTT0=
EXTT1=
EXTT2=
EXTT3=
EXTT4=
EXTT5=
EXTT6=
EXTT7=
EXTT8=
EXTT9=
PLAYORDER=
